<svg width="17" height="15" viewBox="0 0 17 15" fill="none" xmlns="http://www.w3.org/2000/svg">
<rect width="17" height="13" fill="#BB9B75"/>
<path d="M15 14.5L17 13H15V14.5Z" fill="#92734E"/>
<path d="M7.28906 6.34766C7.28906 7.32422 7.41276 8.09896 7.66016 8.67188C7.90755 9.24479 8.28516 9.53125 8.79297 9.53125C9.06641 9.53125 9.30078 9.44661 9.49609 9.27734C9.69141 9.10156 9.84115 8.86068 9.94531 8.55469C10.056 8.2487 10.1341 7.91667 10.1797 7.55859C10.2318 7.19401 10.2578 6.79036 10.2578 6.34766C10.2578 5.37109 10.1341 4.5931 9.88672 4.01367C9.64583 3.43424 9.27474 3.14453 8.77344 3.14453C8.27865 3.14453 7.90755 3.43099 7.66016 4.00391C7.41276 4.57682 7.28906 5.35807 7.28906 6.34766ZM6.48828 6.34766C6.48828 5.01953 6.70638 4.04948 7.14258 3.4375C7.57878 2.81901 8.1224 2.50977 8.77344 2.50977C9.48958 2.50977 10.0495 2.83854 10.4531 3.49609C10.8568 4.15365 11.0586 5.10417 11.0586 6.34766C11.0586 7.08984 10.9805 7.74089 10.8242 8.30078C10.6745 8.86068 10.4271 9.31315 10.082 9.6582C9.73698 10.0033 9.30729 10.1758 8.79297 10.1758C8.13542 10.1758 7.58529 9.86003 7.14258 9.22852C6.70638 8.59701 6.48828 7.63672 6.48828 6.34766Z"/>
</svg>
